
<svg viewBox="0 0 53.917 53.917" style="enable-background:new 0 0 53.917 53.917;" xmlns="http://www.w3.org/2000/svg">
  <g>
    <g>
      <path style="paint-order: fill; fill: rgba(163, 163, 163, 0.5);" d="M44.983,16.564l-2.073-1.382c-0.863-0.576-2.026-0.377-2.649,0.454l-0.074,0.099 c-0.927,1.236-2.853,0.96-3.395-0.487l-0.682-1.819c-0.569-1.517-2.63-1.724-3.489-0.35l-1.933,3.093 c-0.728,1.165-2.398,1.236-3.223,0.137l-0.051-0.068c-0.782-1.043-2.347-1.043-3.129,0l-0.409,0.545 c-0.714,0.952-2.106,1.051-2.947,0.209l-0.533-0.533c-0.688-0.688-1.777-0.766-2.556-0.182l-1.344,1.008 c-0.928,0.696-2.253,0.436-2.85-0.558l-1.354-2.256c-0.494-0.823-1.512-1.166-2.403-0.809l-1.78,0.712v29.744 c0,5.133,4.161,9.295,9.295,9.295h9.553h9.553c5.133,0,9.295-4.161,9.295-9.295V16.861C45.526,16.823,45.246,16.739,44.983,16.564 z"/>
      <path style="fill: rgb(138, 138, 138);" d="M36.511,53.917H17.405c-5.401,0-9.795-4.394-9.795-9.795V14.039l2.094-0.837 c1.124-0.452,2.394-0.022,3.018,1.017l1.354,2.256c0.215,0.357,0.559,0.599,0.968,0.679c0.411,0.08,0.819-0.013,1.153-0.264 l1.344-1.008c0.969-0.728,2.349-0.632,3.209,0.229l0.533,0.533c0.298,0.298,0.708,0.457,1.132,0.422 c0.421-0.029,0.808-0.24,1.062-0.578l0.409-0.545c0.468-0.624,1.184-0.982,1.964-0.982s1.496,0.358,1.964,0.982 c0.343,0.457,0.791,0.674,1.276,0.647c0.487-0.021,0.915-0.27,1.173-0.682l1.933-3.094c0.499-0.798,1.395-1.234,2.327-1.142 c0.937,0.094,1.724,0.699,2.054,1.58l0.682,1.819c0.189,0.506,0.622,0.854,1.157,0.93c0.53,0.075,1.046-0.135,1.371-0.566 l0.073-0.099c0.783-1.044,2.244-1.294,3.327-0.57l2.073,1.382c0.172,0.115,0.367,0.184,0.613,0.218l0.433,0.059v27.697 C46.306,49.523,41.912,53.917,36.511,53.917z M8.61,14.716v29.405c0,4.85,3.945,8.795,8.795,8.795h19.106 c4.85,0,8.795-3.945,8.795-8.795V17.263c-0.218-0.066-0.416-0.16-0.6-0.283l-2.073-1.382c-0.644-0.429-1.508-0.279-1.972,0.337 l-0.073,0.099c-0.548,0.729-1.414,1.085-2.313,0.958c-0.902-0.129-1.631-0.716-1.951-1.568l-0.682-1.819 c-0.199-0.53-0.654-0.881-1.218-0.938c-0.559-0.057-1.079,0.196-1.379,0.677l-1.933,3.094c-0.429,0.688-1.169,1.117-1.978,1.151 c-0.811,0.05-1.583-0.332-2.068-0.979c-0.656-0.875-1.824-0.808-2.379-0.067l-0.409,0.545c-0.427,0.57-1.08,0.926-1.791,0.977 c-0.708,0.049-1.407-0.21-1.91-0.713l-0.533-0.533c-0.508-0.507-1.327-0.567-1.902-0.135l-1.344,1.008 c-0.556,0.415-1.265,0.579-1.945,0.444c-0.681-0.133-1.276-0.551-1.633-1.146l-1.354-2.256c-0.369-0.615-1.121-0.869-1.789-0.603 L8.61,14.716z"/>
    </g>
    <path style="fill: rgb(148, 148, 148);" d="M37.888,24.14h0.451c-1.966,0-3.816-0.817-5.251-2.166c-0.991-0.932-2.094-1.629-3.271-2.061 c-0.739,0.325-1.637,0.175-2.224-0.47c-0.16-0.01-0.319-0.026-0.481-0.026c-2.205,0-4.256,0.94-5.975,2.557 c-1.435,1.349-3.285,2.166-5.251,2.166h0.272c-1.724,0-3.135,1.417-3.135,3.149v13.402c0,1.732,1.411,3.149,3.135,3.149h-0.465 c2.003,0,3.885,0.845,5.326,2.242c1.742,1.689,3.836,2.677,6.093,2.677c2.257,0,4.351-0.988,6.093-2.677 c1.441-1.397,3.324-2.242,5.326-2.242h-0.644c1.724,0,3.135-1.417,3.135-3.149V27.288C41.024,25.557,39.613,24.14,37.888,24.14z"/>
    <path d="M 19.782 32.502 L 21.152 35.002 L 21.552 35.002 L 21.552 36.312 L 19.372 36.312 L 18.172 33.832 L 17.802 34.132 L 17.802 35.002 L 18.182 35.002 L 18.182 36.312 L 15.162 36.312 L 15.162 35.002 L 15.562 35.002 L 15.562 31.402 L 15.162 31.402 L 15.162 30.092 L 18.182 30.092 L 18.182 31.402 L 17.802 31.402 L 17.802 32.452 L 19.042 31.402 L 18.542 31.402 L 18.542 30.092 L 21.512 30.092 L 21.512 31.402 L 21.112 31.402 L 19.782 32.502 ZM 24.125 36.422 C 23.365 36.422 22.772 36.225 22.345 35.832 C 21.918 35.432 21.705 34.852 21.705 34.092 C 21.705 33.325 21.918 32.745 22.345 32.352 C 22.772 31.952 23.365 31.752 24.125 31.752 C 24.892 31.752 25.485 31.952 25.905 32.352 C 26.325 32.759 26.535 33.339 26.535 34.092 C 26.535 34.852 26.322 35.432 25.895 35.832 C 25.468 36.225 24.878 36.422 24.125 36.422 Z M 24.125 35.002 C 24.278 35.002 24.395 34.959 24.475 34.872 C 24.548 34.792 24.585 34.665 24.585 34.492 L 24.585 33.692 C 24.585 33.512 24.548 33.382 24.475 33.302 C 24.395 33.215 24.278 33.172 24.125 33.172 C 23.972 33.172 23.855 33.215 23.775 33.302 C 23.695 33.382 23.655 33.512 23.655 33.692 L 23.655 34.492 C 23.655 34.665 23.695 34.792 23.775 34.872 C 23.855 34.959 23.972 35.002 24.125 35.002 ZM 31.746 35.002 L 32.106 35.002 L 32.106 36.312 L 29.576 36.312 L 29.576 35.002 L 29.906 35.002 L 29.906 33.692 C 29.906 33.512 29.869 33.382 29.796 33.302 C 29.722 33.215 29.612 33.172 29.466 33.172 C 29.146 33.172 28.986 33.345 28.986 33.692 L 28.986 35.002 L 29.316 35.002 L 29.316 36.312 L 26.786 36.312 L 26.786 35.002 L 27.146 35.002 L 27.146 33.172 L 26.786 33.172 L 26.786 31.862 L 28.986 31.862 L 28.986 32.492 C 29.366 31.999 29.846 31.752 30.426 31.752 C 30.866 31.752 31.196 31.892 31.416 32.172 C 31.636 32.445 31.746 32.825 31.746 33.312 L 31.746 35.002 ZM 32.348 36.312 L 32.348 35.002 L 32.708 35.002 L 32.708 33.172 L 32.348 33.172 L 32.348 31.862 L 32.718 31.862 C 32.718 31.215 32.878 30.739 33.198 30.432 C 33.511 30.125 33.975 29.972 34.588 29.972 C 34.881 29.972 35.141 29.995 35.368 30.042 C 35.601 30.082 35.771 30.129 35.878 30.182 L 35.878 31.442 C 35.598 31.415 35.338 31.402 35.098 31.402 C 34.891 31.402 34.748 31.435 34.668 31.502 C 34.588 31.575 34.548 31.695 34.548 31.862 L 35.168 31.862 L 35.168 33.172 L 34.548 33.172 L 34.548 35.002 L 35.168 35.002 L 35.168 36.312 L 32.348 36.312 ZM 37.285 31.422 L 35.655 31.422 L 35.655 30.092 L 37.285 30.092 L 37.285 31.422 Z M 37.815 36.312 L 35.265 36.312 L 35.265 35.002 L 35.625 35.002 L 35.625 33.172 L 35.265 33.172 L 35.265 31.862 L 37.465 31.862 L 37.465 35.002 L 37.815 35.002 L 37.815 36.312 Z" transform="matrix(1, 0, 0, 1, 0, 0)" style="white-space: pre; fill: rgb(188, 188, 188);"/>
    <path style="fill: rgb(161, 161, 161);" d="M13.098,17.068l1.279,2.132c0.564,0.94,1.817,1.185,2.694,0.528l1.27-0.952 c0.736-0.552,1.765-0.479,2.416,0.172l0.503,0.503c0.795,0.795,2.111,0.702,2.785-0.198l0.386-0.515 c0.739-0.986,2.218-0.986,2.957,0l0.048,0.064c0.779,1.039,2.358,0.972,3.046-0.129l1.827-2.923 c0.812-1.299,2.76-1.103,3.298,0.331l0.645,1.719c0.513,1.367,2.333,1.628,3.209,0.46l0.07-0.094 c0.589-0.785,1.688-0.973,2.504-0.429l1.959,1.306c1.228,0.819,2.873-0.062,2.873-1.538v-1.343c0-7.516-9.431-5.355-9.431-9.431 V5.671H37.5c1.695,0,3.081-0.77,3.081-2.465V3.081C40.581,1.386,39.194,0,37.5,0H16.417c-1.695,0-3.081,1.386-3.081,3.081v0.125 c0,1.695,1.386,2.465,3.081,2.465h0.063V6.73c0,4.076-9.431,1.915-9.431,9.431v1.653l3.778-1.511 C11.669,15.966,12.631,16.29,13.098,17.068z"/>
    <path style="fill: rgb(100, 100, 100);" d="M26.024,6.429c-0.552,0-1-0.447-1-1s0.448-1,1-1c1.836,0,2.917-0.003,3.997-0.006 c1.082-0.004,2.164-0.007,4.003-0.007c0.552,0,1,0.447,1,1s-0.448,1-1,1c-1.836,0-2.917,0.003-3.997,0.006 C28.944,6.426,27.862,6.429,26.024,6.429z"/>
    <path style="fill: rgb(100, 100, 100);" d="M22.024,6.417h-2c-0.552,0-1-0.447-1-1s0.448-1,1-1h2c0.552,0,1,0.447,1,1 S22.576,6.417,22.024,6.417z"/>
  </g>
  <g/>
  <g/>
  <g/>
  <g/>
  <g/>
  <g/>
  <g/>
  <g/>
  <g/>
  <g/>
  <g/>
  <g/>
  <g/>
  <g/>
  <g/>
</svg>